<svg width="33" height="32" viewBox="0 0 33 32" fill="none" xmlns="http://www.w3.org/2000/svg">
<rect x="3" y="2" width="30" height="30" rx="8" fill="#7A13FD" fill-opacity="0.5"/>
<rect width="30" height="30" rx="8" fill="#7A13FD"/>
<path d="M7.21484 9.62598V8.61621C7.21484 8.32259 7.31152 8.0791 7.50488 7.88574C7.69824 7.69238 7.94173 7.5957 8.23535 7.5957H21.8672C22.1608 7.5957 22.4043 7.69238 22.5977 7.88574C22.791 8.0791 22.8877 8.32259 22.8877 8.61621V9.62598C22.8877 9.9196 22.791 10.1631 22.5977 10.3564C22.4043 10.5426 22.1608 10.6357 21.8672 10.6357H17.0762V22.0117C17.0762 22.291 16.9759 22.5273 16.7754 22.7207C16.582 22.9069 16.3457 23 16.0664 23H14.0361C13.7568 23 13.5169 22.9069 13.3164 22.7207C13.123 22.5273 13.0264 22.291 13.0264 22.0117V10.6357H8.23535C7.94173 10.6357 7.69824 10.5426 7.50488 10.3564C7.31152 10.1631 7.21484 9.9196 7.21484 9.62598Z" fill="white"/>
</svg>
